<svg xmlns="http://www.w3.org/2000/svg" width="24" height="24" viewBox="0 0 24 24" fill="none">
<path d="M12.2228 11.641L11.9998 11.861L11.7758 11.641C11.3596 11.2301 10.7983 10.9997 10.2133 10.9997C9.62844 10.9997 9.06708 11.2301 8.65085 11.641C8.44427 11.8397 8.27993 12.0781 8.16767 12.3419C8.05542 12.6057 7.99756 12.8894 7.99756 13.176C7.99756 13.4627 8.05542 13.7464 8.16767 14.0101C8.27993 14.2739 8.44427 14.5123 8.65085 14.711L11.9998 18L15.3488 14.711C15.5554 14.5123 15.7198 14.2739 15.832 14.0101C15.9443 13.7464 16.0021 13.4627 16.0021 13.176C16.0021 12.8894 15.9443 12.6057 15.832 12.3419C15.7198 12.0781 15.5554 11.8397 15.3488 11.641C14.9324 11.23 14.3709 10.9996 13.7858 10.9996C13.2008 10.9996 12.6392 11.23 12.2228 11.641Z" fill="black"/>
<path d="M21.7068 11.293L12.7068 2.29302C12.614 2.20007 12.5038 2.12633 12.3825 2.07602C12.2612 2.02571 12.1311 1.99982 11.9998 1.99982C11.8685 1.99982 11.7384 2.02571 11.6171 2.07602C11.4958 2.12633 11.3856 2.20007 11.2928 2.29302L2.29279 11.293C2.15298 11.4329 2.05777 11.611 2.0192 11.805C1.98064 11.9989 2.00044 12.2 2.07611 12.3827C2.15178 12.5654 2.27992 12.7215 2.44433 12.8314C2.60874 12.9413 2.80204 13 2.99979 13H3.99979V20C3.99979 21.103 4.89679 22 5.99979 22H17.9998C19.1028 22 19.9998 21.103 19.9998 20V13H20.9998C21.1975 13 21.3908 12.9413 21.5552 12.8314C21.7197 12.7215 21.8478 12.5654 21.9235 12.3827C21.9991 12.2 22.0189 11.9989 21.9804 11.805C21.9418 11.611 21.8466 11.4329 21.7068 11.293ZM18.0008 20H5.99979V10.415L11.9998 4.41502L17.9998 10.415V15L18.0008 20Z" fill="black"/>
</svg>